<svg width="114" height="38" viewBox="0 0 114 38" fill="none" xmlns="http://www.w3.org/2000/svg">
<g clip-path="url(#clip0_713_491)">
<path d="M104.922 0.0001235H9.08337C8.73403 0.0001235 8.38888 0.0001235 8.04046 0.0020235C7.7488 0.0039235 7.45947 0.009443 7.16501 0.0140885C6.52531 0.0215952 5.88711 0.0777159 5.25596 0.181963C4.6257 0.28848 4.01518 0.489293 3.44505 0.777613C2.87562 1.06837 2.35532 1.44618 1.90302 1.89734C1.44834 2.34723 1.06933 2.86724 0.780568 3.43738C0.491005 4.00638 0.290221 4.61612 0.185151 5.24553C0.0790818 5.87415 0.0220051 6.51002 0.0144329 7.14743C0.00559216 7.4387 0.00465854 7.73094 0 8.02225V29.9808C0.00465854 30.2758 0.00559216 30.5615 0.0144329 30.8566C0.0220074 31.494 0.0790841 32.1298 0.185151 32.7584C0.289931 33.3882 0.490727 33.9983 0.780568 34.5675C1.0692 35.1358 1.44826 35.6537 1.90302 36.1011C2.35361 36.5542 2.87425 36.9323 3.44505 37.2208C4.01517 37.5099 4.62563 37.7119 5.25596 37.8201C5.88721 37.9235 6.52535 37.9797 7.16501 37.9881C7.45947 37.9945 7.7488 37.9982 8.04046 37.9982C8.38887 38.0001 8.73405 38.0001 9.08337 38.0001H104.922C105.264 38.0001 105.612 38.0001 105.954 37.9982C106.245 37.9982 106.542 37.9945 106.833 37.9881C107.471 37.9801 108.108 37.924 108.738 37.8201C109.37 37.7112 109.983 37.5092 110.556 37.2208C111.126 36.9321 111.646 36.5541 112.097 36.1011C112.55 35.6519 112.93 35.1344 113.222 34.5675C113.51 33.9979 113.709 33.3878 113.812 32.7584C113.918 32.1297 113.977 31.494 113.989 30.8566C113.993 30.5615 113.993 30.2758 113.993 29.9808C114 29.6357 114 29.2924 114 28.9417V9.05945C114 8.71155 114 8.36643 113.993 8.02225C113.993 7.73094 113.993 7.4387 113.989 7.14739C113.977 6.50992 113.918 5.8742 113.812 5.24549C113.709 4.61644 113.51 4.00675 113.222 3.43734C112.634 2.29456 111.702 1.36435 110.556 0.777527C109.983 0.489912 109.37 0.289152 108.738 0.181877C108.108 0.0771711 107.471 0.0210309 106.833 0.0139555C106.542 0.0093195 106.245 0.0037525 105.954 0.0019C105.612 0 105.264 0 104.922 0V0.0001235Z" fill="#A6A6A6"/>
<path d="M8.04472 37.1686C7.75446 37.1686 7.47122 37.1648 7.18323 37.1584C6.58666 37.1506 5.99147 37.0988 5.40257 37.0034C4.85344 36.9091 4.32148 36.7337 3.82424 36.4829C3.33157 36.2343 2.8822 35.9082 2.49337 35.5172C2.09891 35.1308 1.7705 34.6826 1.52116 34.1905C1.26908 33.6952 1.09462 33.1642 1.00386 32.6162C0.905859 32.0273 0.852833 31.4318 0.845246 30.8349C0.839206 30.6346 0.831299 29.9675 0.831299 29.9675V8.02193C0.831299 8.02193 0.83972 7.36509 0.845294 7.17211C0.852558 6.57616 0.905276 5.98163 1.00299 5.39365C1.09391 4.84409 1.2685 4.31162 1.52072 3.81465C1.76915 3.32285 2.09573 2.87437 2.48782 2.4866C2.87946 2.09515 3.33026 1.76738 3.82378 1.51525C4.31987 1.26529 4.85082 1.0911 5.39884 0.998511C5.98968 0.902149 6.58693 0.850051 7.18558 0.842654L8.04519 0.831055H105.949L106.819 0.84312C107.412 0.850149 108.004 0.901782 108.59 0.99758C109.143 1.09133 109.68 1.26674 110.182 1.51804C111.17 2.02614 111.975 2.83001 112.482 3.81697C112.73 4.3105 112.902 4.83864 112.992 5.38344C113.091 5.97625 113.146 6.57546 113.158 7.17629C113.16 7.44533 113.16 7.73432 113.16 8.02193C113.168 8.37818 113.168 8.71726 113.168 9.05913V28.9414C113.168 29.2865 113.168 29.6233 113.16 29.9628C113.16 30.2717 113.16 30.5547 113.157 30.846C113.146 31.4361 113.091 32.0247 112.994 32.6068C112.905 33.1589 112.731 33.6939 112.479 34.1933C112.228 34.6801 111.902 35.1244 111.512 35.5098C111.123 35.9029 110.673 36.2309 110.179 36.4811C109.678 36.7338 109.143 36.9099 108.59 37.0034C108.001 37.0994 107.406 37.1511 106.809 37.1584C106.53 37.1648 106.238 37.1686 105.954 37.1686L104.921 37.1705L8.04472 37.1686Z" fill="black"/>
<path d="M23.5969 19.2862C23.6072 18.4933 23.8184 17.7158 24.2109 17.0261C24.6034 16.3365 25.1645 15.757 25.8419 15.3417C25.4116 14.7288 24.8438 14.2244 24.1838 13.8686C23.5238 13.5128 22.7896 13.3153 22.0397 13.2919C20.4399 13.1245 18.889 14.2465 18.0738 14.2465C17.2428 14.2465 15.9877 13.3086 14.6361 13.3363C13.7619 13.3645 12.9099 13.618 12.1631 14.0721C11.4163 14.5263 10.8003 15.1656 10.3749 15.9278C8.53246 19.1088 9.90677 23.7838 11.6717 26.355C12.5547 27.6141 13.5867 29.0206 14.9371 28.9707C16.2585 28.916 16.752 28.1304 18.3471 28.1304C19.9273 28.1304 20.3903 28.9707 21.7681 28.939C23.186 28.916 24.0794 27.6743 24.9314 26.4033C25.5659 25.5061 26.0541 24.5146 26.378 23.4654C25.5542 23.118 24.8512 22.5364 24.3567 21.7932C23.8621 21.05 23.5979 20.1781 23.5969 19.2862Z" fill="white"/>
<path d="M20.9945 11.6008C21.7676 10.6753 22.1485 9.48569 22.0563 8.28467C20.8751 8.40838 19.7841 8.97131 19.0005 9.8613C18.6174 10.2961 18.324 10.8019 18.137 11.3498C17.9501 11.8978 17.8732 12.4771 17.9109 13.0546C18.5017 13.0607 19.0862 12.933 19.6203 12.6812C20.1544 12.4293 20.6243 12.0599 20.9945 11.6008Z" fill="white"/>
<path d="M40.2991 25.7828H35.7898L34.7069 28.9714H32.7969L37.0681 17.1743H39.0525L43.3237 28.9714H41.3811L40.2991 25.7828ZM36.2568 24.3114H39.8312L38.0691 19.1365H38.0198L36.2568 24.3114Z" fill="white"/>
<path d="M52.5475 24.6709C52.5475 27.3437 51.1129 29.0609 48.948 29.0609C48.3996 29.0895 47.8542 28.9635 47.3743 28.6974C46.8943 28.4313 46.4993 28.0358 46.2343 27.5561H46.1933V31.8163H44.4229V20.3699H46.1366V21.8005H46.1691C46.4463 21.3231 46.8481 20.9296 47.3317 20.6619C47.8153 20.3941 48.3626 20.2621 48.9155 20.2799C51.1045 20.2799 52.5475 22.0055 52.5475 24.6709ZM50.7278 24.6709C50.7278 22.9295 49.8253 21.7847 48.4484 21.7847C47.0957 21.7847 46.1859 22.9536 46.1859 24.6709C46.1859 26.4039 47.0957 27.5645 48.4484 27.5645C49.8254 27.5645 50.7278 26.428 50.7278 24.6709Z" fill="white"/>
<path d="M62.0404 24.6709C62.0404 27.3437 60.6059 29.0609 58.441 29.0609C57.8926 29.0895 57.3472 28.9635 56.8672 28.6974C56.3873 28.4313 55.9922 28.0358 55.7272 27.5561H55.6862V31.8163H53.9158V20.3699H55.6294V21.8005H55.662C55.9392 21.3231 56.341 20.9296 56.8246 20.6619C57.3082 20.3941 57.8555 20.2621 58.4084 20.2799C60.5975 20.2799 62.0404 22.0055 62.0404 24.6709ZM60.2207 24.6709C60.2207 22.9295 59.3183 21.7847 57.9414 21.7847C56.5887 21.7847 55.6788 22.9536 55.6788 24.6709C55.6788 26.4039 56.5887 27.5645 57.9414 27.5645C59.3183 27.5645 60.2207 26.428 60.2207 24.6709H60.2207Z" fill="white"/>
<path d="M68.3153 25.6844C68.4464 26.8543 69.5861 27.6224 71.1435 27.6224C72.6358 27.6224 73.7094 26.8542 73.7094 25.7994C73.7094 24.8837 73.0618 24.3354 71.5287 23.9597L69.9955 23.5914C67.8231 23.0681 66.8146 22.055 66.8146 20.4111C66.8146 18.3756 68.5934 16.9775 71.1193 16.9775C73.6191 16.9775 75.3328 18.3756 75.3905 20.4111H73.6033C73.4963 19.2338 72.5204 18.5232 71.0942 18.5232C69.668 18.5232 68.692 19.2421 68.692 20.2886C68.692 21.1227 69.3154 21.6134 70.8402 21.9891L72.1436 22.3083C74.5708 22.8807 75.5793 23.853 75.5793 25.5785C75.5793 27.7856 73.8163 29.1679 71.0123 29.1679C68.3887 29.1679 66.6174 27.8181 66.5029 25.6843L68.3153 25.6844Z" fill="white"/>
<path d="M79.3998 18.335V20.3704H81.04V21.7685H79.3998V26.5102C79.3998 27.2468 79.7283 27.59 80.4493 27.59C80.644 27.5867 80.8384 27.573 81.0317 27.5492V28.9389C80.7075 28.9993 80.378 29.0267 80.0483 29.0206C78.302 29.0206 77.621 28.3665 77.621 26.6985V21.7685H76.3669V20.3704H77.621V18.335H79.3998Z" fill="white"/>
<path d="M81.989 24.6714C81.989 21.9652 83.5873 20.2646 86.0797 20.2646C88.5805 20.2646 90.1713 21.9651 90.1713 24.6714C90.1713 27.385 88.5888 29.0781 86.0797 29.0781C83.5715 29.0781 81.989 27.385 81.989 24.6714ZM88.3674 24.6714C88.3674 22.815 87.5143 21.7193 86.0797 21.7193C84.6451 21.7193 83.7929 22.8233 83.7929 24.6714C83.7929 26.5352 84.6451 27.6225 86.0797 27.6225C87.5143 27.6225 88.3674 26.5352 88.3674 24.6714H88.3674Z" fill="white"/>
<path d="M91.6338 20.3698H93.3224V21.8338H93.3633C93.4776 21.3765 93.7462 20.9725 94.124 20.6895C94.5018 20.4065 94.9658 20.2618 95.438 20.2798C95.642 20.2791 95.8455 20.3012 96.0446 20.3457V21.9971C95.787 21.9186 95.5183 21.8825 95.2491 21.8904C94.9919 21.88 94.7355 21.9252 94.4975 22.0229C94.2594 22.1207 94.0455 22.2686 93.8702 22.4566C93.6949 22.6446 93.5625 22.8682 93.4821 23.112C93.4017 23.3559 93.3751 23.6142 93.4042 23.8692V28.9708H91.6338L91.6338 20.3698Z" fill="white"/>
<path d="M104.205 26.4452C103.967 28.0066 102.442 29.0781 100.491 29.0781C97.9819 29.0781 96.4246 27.4017 96.4246 24.7122C96.4246 22.0144 97.9903 20.2646 100.417 20.2646C102.803 20.2646 104.304 21.8993 104.304 24.5072V25.1121H98.2117V25.2187C98.1836 25.5353 98.2234 25.8542 98.3283 26.1542C98.4333 26.4543 98.6011 26.7286 98.8205 26.959C99.04 27.1895 99.3061 27.3707 99.6012 27.4907C99.8962 27.6107 100.214 27.6667 100.532 27.655C100.95 27.6941 101.37 27.5974 101.729 27.3795C102.088 27.1615 102.367 26.8338 102.524 26.4452L104.205 26.4452ZM98.2201 23.8782H102.532C102.548 23.5936 102.505 23.3087 102.405 23.0416C102.305 22.7744 102.151 22.5307 101.953 22.3257C101.754 22.1208 101.515 21.959 101.251 21.8504C100.986 21.7419 100.702 21.6891 100.417 21.6952C100.128 21.6935 99.8425 21.7487 99.5758 21.8577C99.309 21.9667 99.0665 22.1274 98.8623 22.3303C98.658 22.5333 98.4962 22.7745 98.3859 23.0402C98.2757 23.3059 98.2194 23.5907 98.2201 23.8782V23.8782Z" fill="white"/>
<path d="M35.0006 10.6905H35.7607C35.8916 10.7068 36.0244 10.6958 36.1507 10.6583C36.2771 10.6209 36.3944 10.5577 36.4951 10.4728C36.5957 10.3879 36.6777 10.2831 36.7358 10.1651C36.7938 10.047 36.8268 9.91828 36.8325 9.78691C36.8325 9.26414 36.438 8.92644 35.7691 8.92644C35.635 8.90776 35.4986 8.91606 35.3678 8.95084C35.237 8.98561 35.1145 9.04617 35.0076 9.12893C34.9007 9.21169 34.8115 9.31497 34.7452 9.43269C34.679 9.5504 34.6371 9.68015 34.622 9.81428H33.7874C33.8018 9.5708 33.8663 9.33287 33.9768 9.11531C34.0874 8.89775 34.2417 8.70522 34.4301 8.5497C34.6186 8.39418 34.8371 8.279 35.0721 8.21134C35.307 8.14368 35.5535 8.12499 35.796 8.15642C36.9152 8.15642 37.7033 8.78124 37.7033 9.68068C37.7059 9.982 37.6048 10.2751 37.4169 10.5111C37.2289 10.747 36.9655 10.9115 36.6706 10.9772V11.044C37.0202 11.0595 37.3495 11.2123 37.5864 11.4692C37.8233 11.726 37.9486 12.066 37.9349 12.4147C37.909 12.6654 37.8332 12.9084 37.712 13.1295C37.5907 13.3507 37.4264 13.5454 37.2286 13.7023C37.0309 13.8593 36.8037 13.9753 36.5605 14.0436C36.3172 14.1119 36.0627 14.131 35.8119 14.1C35.5606 14.1341 35.3049 14.1175 35.0602 14.051C34.8154 13.9846 34.5866 13.8696 34.3874 13.7131C34.1881 13.5566 34.0225 13.3616 33.9004 13.1399C33.7783 12.9182 33.7023 12.6743 33.6768 12.4226H34.5243C34.5755 12.9649 35.0751 13.3147 35.8119 13.3147C36.5487 13.3147 37.0297 12.9218 37.0297 12.3679C37.0297 11.8062 36.5766 11.4601 35.7849 11.4601H35.0006V10.6905Z" fill="white"/>
<path d="M38.8984 12.7526C38.8984 11.9826 39.4743 11.5387 40.494 11.4756L41.656 11.4088V11.0396C41.656 10.5878 41.3573 10.3326 40.7777 10.3326C40.3051 10.3326 39.9786 10.5057 39.8837 10.8081H39.064C39.1506 10.0733 39.8446 9.60205 40.8177 9.60205C41.8932 9.60205 42.4998 10.136 42.4998 11.0396V13.9624H41.6839V13.3612H41.6169C41.4809 13.5769 41.29 13.7527 41.0636 13.8707C40.8373 13.9887 40.5835 14.0446 40.3284 14.0329C40.1483 14.0516 39.9663 14.0324 39.7941 13.9766C39.6219 13.9209 39.4633 13.8297 39.3286 13.7091C39.1938 13.5885 39.086 13.4411 39.0119 13.2763C38.9378 13.1116 38.8991 12.9332 38.8984 12.7526ZM41.656 12.3871V12.0295L40.6084 12.0963C40.0176 12.1357 39.7497 12.3361 39.7497 12.7132C39.7497 13.0982 40.0846 13.3223 40.5451 13.3223C40.6801 13.3359 40.8164 13.3223 40.946 13.2823C41.0755 13.2423 41.1957 13.1768 41.2994 13.0895C41.403 13.0023 41.488 12.8951 41.5492 12.7744C41.6105 12.6538 41.6468 12.522 41.656 12.3871Z" fill="white"/>
<path d="M44.747 10.3952V13.9624H43.9004V9.68457H46.7249V10.3952L44.747 10.3952Z" fill="white"/>
<path d="M51.8549 11.8222C51.8549 13.1813 51.1655 14.0335 50.0826 14.0335C49.8168 14.0516 49.5513 13.9936 49.3174 13.8663C49.0835 13.739 48.891 13.5477 48.7625 13.3149H48.6955V15.3852H47.8489V9.68517H48.6639V10.3921H48.7271C48.858 10.1512 49.053 9.95112 49.2907 9.81384C49.5285 9.67656 49.7996 9.60748 50.0743 9.61422C51.1655 9.61419 51.8549 10.4626 51.8549 11.8222ZM50.9841 11.8222C50.9841 10.9186 50.5552 10.3726 49.838 10.3726C49.1254 10.3726 48.6797 10.9302 48.6797 11.8259C48.6797 12.7175 49.1253 13.2755 49.8342 13.2755C50.5552 13.2755 50.9841 12.7295 50.9841 11.8222Z" fill="white"/>
<path d="M52.9805 15.4945V14.7676C53.0721 14.7792 53.1644 14.7845 53.2568 14.7834C53.4372 14.7967 53.6161 14.7432 53.7593 14.633C53.9025 14.5228 53.9999 14.3638 54.0327 14.1864L54.0959 13.9781L52.5432 9.68457H53.4652L54.5407 13.0824H54.6077L55.6794 9.68457H56.5772L54.978 14.1391C54.6114 15.18 54.2058 15.514 53.3313 15.514C53.2605 15.514 53.0596 15.5061 52.9805 15.4945Z" fill="white"/>
<path d="M57.2375 12.7483H58.0804C58.1632 13.1255 58.5177 13.3221 59.0136 13.3221C59.5774 13.3221 59.9234 13.0744 59.9234 12.6894C59.9234 12.277 59.6127 12.0804 59.0136 12.0804H58.3716V11.4245H59.0024C59.5141 11.4245 59.7746 11.2282 59.7746 10.8706C59.7746 10.5566 59.5225 10.3168 59.0024 10.3168C58.5289 10.3168 58.1828 10.5171 58.1279 10.8548H57.312C57.373 10.4668 57.5843 10.1181 57.9004 9.88384C58.2165 9.64953 58.6122 9.54831 59.0024 9.60193C60.0221 9.60193 60.6054 10.0616 60.6054 10.7843C60.6101 10.9856 60.5455 11.1824 60.4222 11.3418C60.2989 11.5012 60.1245 11.6136 59.9281 11.6601V11.7269C60.1619 11.757 60.3765 11.8716 60.5312 12.049C60.6859 12.2265 60.7699 12.4543 60.7673 12.6894C60.7673 13.5026 60.0732 14.0407 59.0136 14.0407C58.0767 14.0406 57.3157 13.6125 57.2375 12.7483Z" fill="white"/>
<path d="M61.9875 13.9624V9.68457H62.8267V12.6269H62.8937L64.8707 9.68458H65.7098V13.9624H64.8707V11.0043H64.8074L62.8267 13.9624L61.9875 13.9624Z" fill="white"/>
<path d="M70.3313 10.3961H68.9804V13.9633H68.1329V10.3961H66.782V9.68555H70.3313V10.3961Z" fill="white"/>
<path d="M74.8948 12.8075C74.7795 13.1984 74.53 13.5365 74.1901 13.7627C73.8502 13.9889 73.4414 14.0888 73.0351 14.045C72.7524 14.0525 72.4716 13.9985 72.212 13.8869C71.9524 13.7752 71.7203 13.6085 71.5317 13.3985C71.3432 13.1884 71.2027 12.9399 71.1201 12.6703C71.0376 12.4006 71.0148 12.1163 71.0535 11.837C71.0158 11.5569 71.039 11.272 71.1214 11.0015C71.2038 10.7311 71.3435 10.4815 71.531 10.2695C71.7186 10.0576 71.9496 9.88835 72.2084 9.7732C72.4673 9.65806 72.7479 9.59971 73.0313 9.60212C74.225 9.60212 74.946 10.4153 74.946 11.7586V12.0532H71.9168V12.1005C71.9034 12.2575 71.9231 12.4156 71.9746 12.5646C72.0261 12.7136 72.1083 12.8502 72.2159 12.9656C72.3235 13.081 72.4541 13.1727 72.5993 13.2348C72.7446 13.2968 72.9013 13.3279 73.0593 13.326C73.2616 13.3502 73.4666 13.3137 73.6482 13.2214C73.8298 13.129 73.9797 12.985 74.0789 12.8074L74.8948 12.8075ZM71.9168 11.4288H74.0826C74.0933 11.2853 74.0738 11.1412 74.0253 11.0057C73.9768 10.8701 73.9005 10.7462 73.8011 10.6419C73.7018 10.5375 73.5816 10.455 73.4484 10.3997C73.3152 10.3444 73.1719 10.3175 73.0276 10.3207C72.8811 10.3187 72.7358 10.346 72.6001 10.401C72.4644 10.456 72.3411 10.5375 72.2375 10.6408C72.134 10.7442 72.0523 10.8671 71.9972 11.0025C71.9421 11.1378 71.9148 11.2828 71.9168 11.4288H71.9168Z" fill="white"/>
<path d="M78.4827 9.68457H80.4168C81.256 9.68457 81.7482 10.1085 81.7482 10.7723C81.7495 10.9829 81.6782 11.1876 81.5463 11.3521C81.4143 11.5166 81.2298 11.6309 81.0234 11.6759V11.7427C81.274 11.7585 81.5088 11.8696 81.6795 12.0532C81.8503 12.2367 81.9438 12.4786 81.9407 12.7289C81.9407 13.4753 81.3779 13.9623 80.4364 13.9623H78.4827V9.68457ZM79.3218 10.3326V11.4403H80.161C80.6727 11.4403 80.9174 11.2441 80.9174 10.8823C80.9174 10.5487 80.7043 10.3326 80.255 10.3326L79.3218 10.3326ZM79.3218 12.061V13.3143H80.3257C80.8262 13.3143 81.0942 13.094 81.0942 12.6895C81.0942 12.2614 80.7909 12.061 80.2196 12.061L79.3218 12.061Z" fill="white"/>
</g>
<defs>
<clipPath id="clip0_713_491">
<rect width="114" height="38" fill="white"/>
</clipPath>
</defs>
</svg>
